<svg width="28" height="28" viewBox="0 0 28 28" fill="none" xmlns="http://www.w3.org/2000/svg">
<g clip-path="url(#clip0_468_3177)">
<path d="M27.3778 14.2467C27.3778 6.68729 21.2588 0.568359 13.6995 0.568359C6.14071 0.568359 0 6.68729 0 14.2467C0 21.0855 5.01822 26.739 11.5609 27.7769V18.2059H8.06711V14.2467H11.5609V11.2401C11.5609 7.80978 13.5937 5.90391 16.7272 5.90391C18.2305 5.90391 19.7761 6.20071 19.7761 6.20071V9.54578H18.0612C16.3676 9.54578 15.8169 10.6048 15.8169 11.6844V14.2467H19.628L19.0139 18.2059H15.8169V27.7769C22.3596 26.7602 27.3778 21.0855 27.3778 14.2467Z" fill="#1877F2"/>
</g>
<defs>
<clipPath id="clip0_468_3177">
<rect width="28" height="28" fill="white"/>
</clipPath>
</defs>
</svg>
