<svg fill="none" viewBox="0 0 24 24" xmlns="http://www.w3.org/2000/svg">
  <path fill="#000" fill-rule="evenodd" d="M2 12C2 6.477 6.477 2 12 2s10 4.477 10 10-4.477 10-10 10S2 17.523 2 12Zm2.062-1a8.007 8.007 0 0 1 4.384-6.169 9.16 9.16 0 0 0-.188.399C7.568 6.782 7.126 8.796 7.023 11H4.062Zm0 2a8.006 8.006 0 0 0 4.384 6.169 9.877 9.877 0 0 1-.188-.399c-.69-1.552-1.132-3.566-1.235-5.77H4.062Zm4.964 0c.101 1.966.498 3.695 1.06 4.958.327.738.692 1.273 1.046 1.61.35.333.641.432.868.432.227 0 .518-.1.868-.432.354-.337.719-.872 1.047-1.61.561-1.263.958-2.991 1.06-4.958h-5.95Zm7.95 0c-.102 2.204-.544 4.218-1.234 5.77a9.16 9.16 0 0 1-.188.399A8.006 8.006 0 0 0 19.938 13h-2.961Zm2.962-2h-2.961c-.103-2.204-.545-4.218-1.235-5.77a9.78 9.78 0 0 0-.188-.399A8.006 8.006 0 0 1 19.938 11Zm-4.964 0H9.026c.101-1.967.498-3.695 1.06-4.958.327-.738.692-1.273 1.046-1.61.35-.333.641-.432.868-.432.227 0 .518.1.868.432.354.337.719.872 1.047 1.61.561 1.263.958 2.991 1.06 4.958Z" clip-rule="evenodd"/>
</svg>