<svg width="28" height="28" viewBox="0 0 28 28" fill="none" xmlns="http://www.w3.org/2000/svg">
<g clip-path="url(#clip0_468_3116)">
<path fill-rule="evenodd" clip-rule="evenodd" d="M28 5.40073C28 5.50573 27.9682 5.60118 27.9065 5.68773C27.8429 5.77237 27.776 5.81628 27.6997 5.81628C27.0862 5.878 26.5816 6.08291 26.1928 6.43355C25.8008 6.78227 25.3992 7.45173 24.9837 8.43555L18.6296 23.3379C18.5876 23.476 18.4724 23.5454 18.2796 23.5454C18.13 23.5454 18.0142 23.476 17.9302 23.3379L14.3666 15.5819L10.269 23.3379C10.1857 23.476 10.0699 23.5454 9.91904 23.5454C9.73704 23.5454 9.61677 23.476 9.55759 23.3379L3.31486 8.43555C2.92541 7.51027 2.51432 6.86437 2.08095 6.49782C1.65013 6.13128 1.04686 5.90346 0.275589 5.81628C0.209407 5.81628 0.145134 5.78 0.088498 5.70618C0.0300323 5.6356 -0.00133251 5.54647 4.34204e-05 5.45482C4.34204e-05 5.21109 0.0662252 5.09082 0.199225 5.09082C0.756043 5.09082 1.33704 5.11627 1.94541 5.16718C2.50923 5.22127 3.04123 5.24737 3.53886 5.24737C4.04604 5.24737 4.64486 5.22191 5.33404 5.16782C6.05568 5.11628 6.69586 5.09082 7.25268 5.09082C7.38568 5.09082 7.45186 5.21173 7.45186 5.45482C7.45186 5.696 7.40986 5.81628 7.32904 5.81628C6.77223 5.85955 6.33377 6.00846 6.01368 6.25727C5.69359 6.508 5.53386 6.83637 5.53386 7.24364C5.53386 7.45173 5.60004 7.71009 5.73304 8.02L10.892 20.1465L13.8206 14.39L11.0919 8.43555C10.6019 7.37473 10.1978 6.68746 9.88277 6.38009C9.56713 6.07464 9.08986 5.88564 8.44904 5.81628C8.3905 5.81628 8.33577 5.78 8.28168 5.70618C8.22757 5.6337 8.19914 5.54526 8.20086 5.45482C8.20086 5.21109 8.2575 5.09082 8.37523 5.09082C8.93204 5.09082 9.44177 5.11627 9.90695 5.16718C10.3556 5.22127 10.8329 5.24737 11.3407 5.24737C11.8377 5.24737 12.3652 5.22191 12.9214 5.16782C13.4954 5.11691 14.0592 5.09082 14.6154 5.09082C14.749 5.09082 14.8152 5.21173 14.8152 5.45482C14.8152 5.696 14.7758 5.81628 14.6918 5.81628C13.5788 5.89582 13.0226 6.22355 13.0226 6.80264C13.0226 7.06164 13.1499 7.46446 13.4089 8.00791L15.2142 11.8216L17.0088 8.33309C17.2582 7.84118 17.3842 7.42564 17.3842 7.08773C17.3842 6.29291 16.8274 5.86973 15.7138 5.81628C15.6132 5.81628 15.5636 5.69537 15.5636 5.45482C15.5636 5.36764 15.5884 5.28555 15.6374 5.20855C15.6896 5.129 15.7392 5.09082 15.7876 5.09082C16.1866 5.09082 16.6772 5.11627 17.2576 5.16718C17.7134 5.21523 18.1713 5.24199 18.6296 5.24737C18.886 5.24737 19.2653 5.22382 19.7623 5.18055C20.2887 5.12687 20.8172 5.09693 21.3462 5.09082C21.4449 5.09082 21.4939 5.19328 21.4939 5.40073C21.4939 5.67755 21.4029 5.81628 21.2202 5.81628C20.573 5.88564 20.0506 6.07273 19.6567 6.375C19.2621 6.67727 18.7702 7.36455 18.1816 8.43555L15.7876 13.0415L19.0286 19.9136L23.814 8.33309C23.9789 7.91055 24.0622 7.52046 24.0622 7.16664C24.0622 6.31837 23.506 5.86973 22.3924 5.81628C22.2919 5.81628 22.2422 5.69537 22.2422 5.45482C22.2422 5.21109 22.316 5.09082 22.4662 5.09082C22.8729 5.09082 23.3552 5.11627 23.912 5.16718C24.4269 5.22127 24.8602 5.24737 25.2077 5.24737C25.5742 5.24737 25.998 5.22191 26.4779 5.16782C26.978 5.11691 27.426 5.09082 27.825 5.09082C27.9409 5.09082 28 5.19328 28 5.40073Z" fill="black"/>
</g>
<defs>
<clipPath id="clip0_468_3116">
<rect width="28" height="28" fill="white"/>
</clipPath>
</defs>
</svg>