<svg width="28" height="28" viewBox="0 0 28 28" fill="none" xmlns="http://www.w3.org/2000/svg">
<path fill-rule="evenodd" clip-rule="evenodd" d="M27.4148 7.57888C27.0928 6.37439 26.1442 5.4255 24.9394 5.10352C22.7559 4.51855 13.9999 4.51855 13.9999 4.51855C13.9999 4.51855 5.24414 4.51855 3.06056 5.10352C1.85583 5.4255 0.907174 6.37439 0.585192 7.57888C0 9.76269 0 14.3184 0 14.3184C0 14.3184 0 18.8743 0.585192 21.0579C0.907174 22.2624 1.85583 23.2115 3.06056 23.5332C5.24414 24.1184 13.9999 24.1184 13.9999 24.1184C13.9999 24.1184 22.7559 24.1184 24.9394 23.5332C26.1442 23.2115 27.0928 22.2624 27.4148 21.0579C28 18.8743 28 14.3184 28 14.3184C28 14.3184 28 9.76269 27.4148 7.57888Z" fill="#FF0000"/>
<path fill-rule="evenodd" clip-rule="evenodd" d="M11.4541 18.6075L18.7498 14.3953L11.4541 10.1826V18.6075Z" fill="#FFFFFE"/>
</svg>
